<svg xmlns="http://www.w3.org/2000/svg" width="30" height="30" viewBox="0 0 30 30">
  <path id="Icon_awesome-thumbs-up" data-name="Icon awesome-thumbs-up" d="M6.094,13.125H1.406A1.406,1.406,0,0,0,0,14.531V28.594A1.406,1.406,0,0,0,1.406,30H6.094A1.406,1.406,0,0,0,7.5,28.594V14.531A1.406,1.406,0,0,0,6.094,13.125ZM3.75,27.656A1.406,1.406,0,1,1,5.156,26.25,1.406,1.406,0,0,1,3.75,27.656ZM22.5,4.773c0,2.485-1.522,3.879-1.95,5.54h5.96A3.5,3.5,0,0,1,30,13.717,4.242,4.242,0,0,1,28.861,16.6l-.006.006a4.895,4.895,0,0,1-.545,4.656,4.633,4.633,0,0,1-.96,4.38,3.111,3.111,0,0,1-.36,2.615C25.793,29.976,22.829,30,20.323,30h-.167a16.82,16.82,0,0,1-7.005-1.859,9.221,9.221,0,0,0-3.085-.948.7.7,0,0,1-.69-.7V13.965a.7.7,0,0,1,.208-.5C11.9,11.172,12.9,8.743,14.805,6.838a7.1,7.1,0,0,0,1.488-3.451C16.554,2.3,17.1,0,18.281,0,19.688,0,22.5.469,22.5,4.773Z" fill="#e40066"/>
</svg>
