<svg xmlns="http://www.w3.org/2000/svg" width="30" height="30" viewBox="0 0 30 30">
  <path id="pen-to-square-solid" d="M27.92,6.247a3.312,3.312,0,0,0-4.689,0L21.45,8.024l5.8,5.8,1.782-1.782a3.312,3.312,0,0,0,0-4.689ZM10.207,19.272a3.271,3.271,0,0,0-.8,1.3L7.655,25.826A1.428,1.428,0,0,0,8,27.283a1.41,1.41,0,0,0,1.456.343l5.257-1.752a3.428,3.428,0,0,0,1.3-.8l9.9-9.911-5.8-5.8ZM5.684,8.752A5.685,5.685,0,0,0,0,14.435V29.591a5.685,5.685,0,0,0,5.684,5.684H20.84a5.685,5.685,0,0,0,5.684-5.684V23.908a1.895,1.895,0,0,0-3.789,0v5.684a1.892,1.892,0,0,1-1.895,1.895H5.684a1.892,1.892,0,0,1-1.895-1.895V14.435a1.892,1.892,0,0,1,1.895-1.895h5.684a1.895,1.895,0,1,0,0-3.789Z" transform="translate(0 -5.275)" fill="#e40066"/>
</svg>
